<svg xmlns="http://www.w3.org/2000/svg" xmlns:xlink="http://www.w3.org/1999/xlink" width="841.891" height="283.46"><defs><path id="a" d="M0 0h841.891v283.46H0z"/></defs><clipPath id="b"><use xlink:href="#a" overflow="visible"/></clipPath><path clip-path="url(#b)" fill="#283033" d="M137.226 183.83c-6.931 4.621-14.49 6.93-23.101 6.93-24.989 0-45.15-22.051-45.15-48.929 0-26.881 20.161-48.931 45.15-48.931 8.61 0 16.17 2.31 23.101 6.72 6.931 4.621 11.971 9.449 15.12 14.28l23.94-14.28c-4.411-7.351-14.28-16.801-25.2-23.31a76.518 76.518 0 00-37.172-9.66c-41.58 0-75.179 33.6-75.179 75.181 0 41.58 33.599 75.181 75.179 75.181 13.442 0 26.25-3.571 37.172-9.871 10.92-6.301 20.789-14.278 25.2-27.721l-23.94-9.66c-3.149 4.829-8.189 9.659-15.12 14.07"/><defs><path id="c" d="M0 0h841.891v283.46H0z"/></defs><clipPath id="d"><use xlink:href="#c" overflow="visible"/></clipPath><path clip-path="url(#d)" fill="#283033" d="M265.228 209.03c-6.931 5.25-15.33 7.979-25.41 7.979-29.611 0-54.181-24.148-54.181-53.971 0-30.031 24.569-54.391 54.181-54.391 14.489 0 25.41 5.669 33.18 15.96v-16.001h27.51V215.33h-27.51v-52.5c0-16.17-13.439-28.981-29.4-28.981-15.96 0-29.399 13.022-29.399 29.192 0 15.75 13.439 28.979 29.399 28.979 4.409 0 7.98-.839 11.131-2.311h.209v.422l10.5 18.688-.21.211z"/><defs><path id="e" d="M0 0h841.891v283.46H0z"/></defs><clipPath id="f"><use xlink:href="#e" overflow="visible"/></clipPath><path clip-path="url(#f)" fill="#283033" d="M343.625 140.359c0 1.681.839 3.359 2.521 4.83 1.468 1.471 7.979 4.409 19.109 8.609 11.129 4.201 18.27 7.352 21.209 9.66 5.671 4.41 9.03 10.711 9.03 19.32v.21c0 21.21-14.909 34.021-39.899 34.021-16.591 0-32.315-5.838-45.755-15.918l15.515-21.672c7.349 7.77 18.69 12.811 29.819 12.811 7.98 0 11.972-2.521 11.972-7.561 0-4.619-3.782-7.771-11.34-9.66-7.562-1.891-13.442-3.359-17.642-4.829a40.516 40.516 0 01-11.34-5.462c-6.72-4.618-11.551-11.34-11.551-22.469v-.42c0-19.531 15.122-33.221 38.641-33.221 13.231 0 27.706 4.355 39.467 12.125l-14.268 22.356c-5.039-5.042-15.539-9.45-25.619-9.45-3.359 0-6.51.42-8.82 3.36-.63 1.049-1.049 2.099-1.049 3.36"/><defs><path id="g" d="M0 0h841.891v283.46H0z"/></defs><clipPath id="h"><use xlink:href="#g" overflow="visible"/></clipPath><path clip-path="url(#h)" fill="#283033" d="M482.314 209.03c-6.93 5.25-15.33 7.979-25.41 7.979-29.608 0-54.18-24.148-54.18-53.971 0-30.031 24.57-54.391 54.18-54.391 14.49 0 25.41 5.671 33.183 15.96v-16.001h27.51V215.33h-27.51v-52.5c0-16.17-13.441-28.981-29.402-28.981-15.959 0-29.398 13.022-29.398 29.192 0 15.75 13.439 28.979 29.398 28.979 4.412 0 7.979-.839 11.131-2.311h.211v.422l10.5 18.688-.213.211z"/><defs><path id="i" d="M0 0h841.891v283.46H0z"/></defs><clipPath id="j"><use xlink:href="#i" overflow="visible"/></clipPath><path clip-path="url(#j)" fill="#283033" d="M544.822 108.608h27.931V215.33h-27.931z"/><defs><path id="k" d="M0 0h841.891v283.46H0z"/></defs><clipPath id="l"><use xlink:href="#k" overflow="visible"/></clipPath><path clip-path="url(#l)" fill="#009FE3" d="M551.335 79.879c0-6.93-5.462-12.811-12.812-12.811-6.719 0-12.6 5.67-12.6 12.601 0 3.569 1.26 6.72 3.78 9.03 2.31 2.52 5.248 3.781 8.818 3.781 7.352 0 12.814-5.25 12.814-12.601"/><defs><path id="m" d="M0 0h841.891v283.46H0z"/></defs><clipPath id="n"><use xlink:href="#m" overflow="visible"/></clipPath><path clip-path="url(#n)" fill="#E6388C" d="M578.425 67.068c-7.351 0-13.23 5.67-13.23 12.601 0 7.349 5.67 12.81 13.021 12.81 6.932 0 12.6-5.25 12.6-12.6.207-6.93-5.462-12.811-12.391-12.811"/><defs><path id="o" d="M0 0h841.891v283.46H0z"/></defs><clipPath id="p"><use xlink:href="#o" overflow="visible"/></clipPath><path clip-path="url(#p)" fill="#009FE3" d="M726.76 75.062v-8.413h-81.9l-3.57 26.25h71.254c.119-.278.226-.56.349-.839 3.046-6.766 7.83-12.619 13.867-16.998"/><defs><path id="q" d="M0 0h841.891v283.46H0z"/></defs><clipPath id="r"><use xlink:href="#q" overflow="visible"/></clipPath><path clip-path="url(#r)" fill="#009FE3" d="M718.344 134.067c-8.752-10.136-22.193-17.228-40.306-17.228h-7.77l1.891-18.06-32.762 9.829-4.83 34.481c27.416-1.717 67.758-7.71 67.812 23.828v2.002c.003-14.064 6.1-26.244 15.965-34.852"/><defs><path id="s" d="M0 0h841.891v283.46H0z"/></defs><clipPath id="t"><use xlink:href="#s" overflow="visible"/></clipPath><path clip-path="url(#t)" fill="#009FE3" d="M702.382 168.919v.52c0 9.45-6.771 20.48-21.052 20.48-13.86 0-16.59-8.399-19.319-16.59l-27.722 10.291c6.722 19.529 24.711 33.391 46.972 33.391 14.908 0 27.108-5.596 35.641-14.541-8.966-8.681-14.52-20.527-14.52-33.551"/><defs><path id="u" d="M0 0h841.891v283.46H0z"/></defs><clipPath id="v"><use xlink:href="#u" overflow="visible"/></clipPath><path clip-path="url(#v)" fill="#E6388C" d="M787.861 134.06c5.879-6.931 9.24-15.75 9.24-25.62 0-23.1-19.531-41.791-43.891-41.791-10.097 0-19.185 3.139-26.451 8.413v17.837h-14.217c-2.08 4.993-3.224 10.181-3.224 15.751 0 9.87 2.933 18.277 9.023 25.418-.004.003.002-.004 0 0 8.194 9.491 12.276 21.65 12.19 33.172-.1 13.639-4.981 26.156-13.636 35.229 9.249 8.957 22.128 14.541 36.312 14.541v-27.09c-12.392 0-22.677-9.029-22.677-21 0-11.76 10.285-21.211 22.677-21.211 12.6 0 22.68 9.451 22.68 21.211.631 10.711-9.869 19.531-18.48 21l11.343 24.992c19.317-5.882 35.278-24.152 35.278-45.992.003-14.069-6.297-26.251-16.167-34.86m-34.649-10.92c-9.031 0-16.17-6.511-16.17-14.7 0-8.191 7.139-14.49 16.17-14.49 9.028 0 16.17 6.299 16.17 14.49 0 8.189-7.142 14.7-16.17 14.7"/><defs><path id="w" d="M0 0h841.891v283.46H0z"/></defs><clipPath id="x"><use xlink:href="#w" overflow="visible"/></clipPath><path clip-path="url(#x)" fill="#445376" d="M726.76 75.062a42.681 42.681 0 00-13.869 16.998c-.123.279-.229.561-.348.839h14.217V75.062z"/><defs><path id="y" d="M0 0h841.891v283.46H0z"/></defs><clipPath id="z"><use xlink:href="#y" overflow="visible"/></clipPath><path clip-path="url(#z)" fill="#445376" d="M718.344 134.067c-9.865 8.608-15.963 20.788-15.963 34.853 0 13.023 5.555 24.869 14.52 33.551 8.652-9.073 13.535-21.592 13.635-35.229.085-11.524-3.997-23.683-12.192-33.175"/></svg>