<svg xmlns="http://www.w3.org/2000/svg" width="69.87" height="70"><g data-name="Groupe 2009"><g data-name="Groupe 2008"><path data-name="Rectangle 750" fill="#e85d21" d="M0 0h69.321v69.321H0z"/><path data-name="Tracé 751" d="M66.79 23.425a63.081 63.081 0 00-19.677-3.089c-13.524 0-20.559 7.214-20.559 17.429 0 9.838 5.5 16.306 18.14 16.306a18.076 18.076 0 004.178-.466v-3.816h20.45v15.807a77.558 77.558 0 01-26.718 4.4c-24.957 0-38.257-12.084-38.257-31.018 0-20.523 16.708-34.391 43.753-34.391a89.79 89.79 0 0121.77 2.812z" fill="#fff"/><path data-name="Rectangle 751" fill="#4f8f16" d="M47.991 47.993h21.33v21.328h-21.33z"/></g></g></svg>