<svg xmlns="http://www.w3.org/2000/svg" width="76.441" height="28.277"><g data-name="Groupe 3402"><path data-name="Tracé 1382" d="M12.726 27.767H1.201c-.417 0-.743-.092-.743-.325 0-.274.37-.463.743-.555l1.434-.277a2.006 2.006 0 001.527-2.081l.046-10.6L4.162 3.24a1.973 1.973 0 00-1.527-2.084l-1.9-.28C.321.833-.003.6-.003.371c0-.28.324-.372.738-.372h13.052c5.969 0 11.477 4.3 11.477 13.235.003 7.732-4.208 14.533-12.538 14.533zm.6-25.918H9.344a1.264 1.264 0 00-1.293 1.067l-.048 11.015.048 9.672c0 1.712 1.571 2.359 4.254 2.359 7.128 0 8.611-7.265 8.611-12.955.002-8.425-3.563-11.158-7.589-11.158z"/><path data-name="Tracé 1387" d="M49.65 27.769a2.322 2.322 0 01-.967-.252 69.703 69.703 0 01-3.408-2.344 14.275 14.275 0 01-9.214 3.107c-5.446 0-8.5-3.208-8.5-7.687 0-3.767 2.5-6.261 4.835-8.1a10.33 10.33 0 01-1.73-5.8c0-3.921 2.8-6.362 6.517-6.362 2.137 0 5.242.3 5.242.3.257 0 .407.149.46.509l.458 6.007a.417.417 0 01-.409.458.492.492 0 01-.509-.358c-.71-3.409-1.372-5.19-4.784-5.19a3.662 3.662 0 00-3.766 3.613c0 5.039 5.751 11.046 11.708 15.477a13.393 13.393 0 001.629-5.854 1.833 1.833 0 00-.407-1.224c-.305-.458-.763-.559-.763-1.017 0-.254.305-.358.763-.358h6.667c.458 0 .713.1.713.358 0 .307-.305.458-.713.559l-.713.1a2.782 2.782 0 00-2.087 2.187 18.509 18.509 0 01-3.056 6.72 70.724 70.724 0 007.535 4.633c.257.151.153.509-.051.509zM33.822 14.485a6.685 6.685 0 00-2.395 4.938c-.048 3.969 2.547 6.87 6.263 6.87a8.332 8.332 0 005.855-2.391 50.244 50.244 0 01-9.723-9.42z" fill="#707070"/><path data-name="Tracé 1388" d="M75.793.882a2.373 2.373 0 00-1.251 1.252l-9.534 25.637c-.093.277-.877.464-1.434.464s-1.293-.187-1.386-.418L52.004 2.087a1.653 1.653 0 00-1.293-.972L49.554.882c-.419-.091-.742-.276-.742-.553 0-.232.324-.324.742-.324h9.531c.419 0 .741.091.741.324 0 .277-.322.51-.741.553l-.879.1c-.925.09-1.526.508-1.526 1.341a2.394 2.394 0 00.185.786l6.943 19.669a.434.434 0 00.694 0l6.2-19.067a4.32 4.32 0 00.278-1.3c0-.739-.556-1.108-1.249-1.294l-.877-.233c-.419-.091-.743-.276-.743-.553 0-.232.324-.324.743-.324h6.845c.419 0 .743.091.743.324-.001.176-.186.362-.649.551z"/></g></svg>