<svg data-name="Groupe 66" xmlns="http://www.w3.org/2000/svg" width="159.375" height="100"><path data-name="Tracé 8" d="M0 79.03h8.388c4.893 0 7.854 2.919 7.854 7.113v.041c0 4.77-3.7 7.237-8.306 7.237H4.523v6.168H0zm8.1 10.362c2.262 0 3.577-1.357 3.577-3.125v-.037c0-2.015-1.4-3.125-3.66-3.125h-3.5v6.291z" fill="#174f81"/><path data-name="Tracé 9" d="M23.109 78.906h4.153l8.8 20.683h-4.689l-1.891-4.605h-8.717l-1.85 4.605h-4.606zm4.77 12.089l-2.714-6.661-2.714 6.661z" fill="#174f81"/><path data-name="Tracé 10" d="M38.076 79.03h9.375a8.183 8.183 0 016 2.1 6.424 6.424 0 011.768 4.687v.041a6.413 6.413 0 01-4.4 6.373l5.016 7.36h-5.3l-4.4-6.579h-3.536v6.579h-4.523zm9.087 9.992c2.22 0 3.454-1.192 3.454-2.919v-.041c0-1.933-1.357-2.919-3.536-2.919h-4.482v5.921h4.564z" fill="#174f81"/><path data-name="Tracé 11" d="M58.306 79.03h4.523v9l8.347-9h5.469l-8.388 8.717 8.758 11.842h-5.428l-6.373-8.759-2.385 2.467v6.291h-4.523z" fill="#174f81"/><path data-name="Tracé 12" d="M76.809 89.351v-.041a10.542 10.542 0 0110.773-10.609 11.115 11.115 0 018.059 2.837l-2.837 3.454a7.654 7.654 0 00-5.387-2.1 6.2 6.2 0 00-5.921 6.415v.041a6.184 6.184 0 006.209 6.538 7.286 7.286 0 004.276-1.234v-2.919h-4.564v-3.906h8.923v8.923a13.184 13.184 0 01-8.758 3.248c-6.373-.08-10.773-4.562-10.773-10.647z" fill="#174f81"/><path data-name="Tracé 13" d="M99.548 79.03h15.5v4.03h-11.02v4.153h9.7v4.03h-9.7v4.317h11.143v4.03H99.507V79.03z" fill="#174f81"/><path data-name="Tracé 14" d="M117.064 96.587l2.673-3.207a9.457 9.457 0 006.127 2.508c1.85 0 2.961-.74 2.961-1.933v-.041c0-1.151-.7-1.727-4.153-2.632-4.153-1.069-6.826-2.22-6.826-6.291v-.041c0-3.742 3-6.209 7.2-6.209a11.892 11.892 0 017.648 2.632l-2.344 3.413a9.522 9.522 0 00-5.345-2.015c-1.727 0-2.632.781-2.632 1.809v.041c0 1.357.863 1.809 4.441 2.714 4.153 1.069 6.538 2.59 6.538 6.168v.041c0 4.071-3.125 6.373-7.566 6.373a13.287 13.287 0 01-8.722-3.33z" fill="#174f81"/><path data-name="Tracé 15" d="M140.748 83.183h-6.25V79.03h17.023v4.153h-6.25v16.365h-4.523V83.183z" fill="#174f81"/><path data-name="Tracé 16" d="M90.913 26.234l-15.136 8.717 15.132 8.758-15.132 8.758h-.041l-15.132-8.758V26.234l15.132-8.758h.041l15.132 8.758 15.173-8.758-15.169-8.718L75.777 0h-.041L60.609 8.758l-15.132 8.717v34.992l15.132 8.717 15.132 8.758h.041l15.132-8.758 15.173-8.717V34.951z" fill="#12416a"/><path data-name="Tracé 17" d="M45.477 34.951v17.517l15.132-8.758V26.234z" fill="#1c5c96"/><path data-name="Tracé 18" d="M45.477 52.467l15.132-8.758v17.475z" fill="#1b588f"/><path data-name="Tracé 19" d="M60.609 43.709v17.475l15.132 8.758V52.467z" fill="#1c5c96"/><path data-name="Tracé 20" d="M75.781 52.467v17.475l15.132-8.758V43.709z" fill="#174f81"/><path data-name="Tracé 21" d="M45.477 17.475l15.132-8.717v17.475z" fill="#12416a"/><path data-name="Tracé 22" d="M60.609 26.233L45.477 34.95V17.475z" fill="#1b588f"/><g data-name="Groupe 20" fill="#e9eef9"><path data-name="Tracé 23" d="M60.609 43.709l15.132-8.758V17.475l-15.132 8.758z"/><path data-name="Tracé 24" d="M75.782 34.95v17.516l15.132-8.758z"/></g><path data-name="Tracé 25" d="M90.913 43.709l15.173-8.758v17.516z" fill="#174f81"/><path data-name="Tracé 26" d="M106.086 52.467l-15.173 8.717V43.709z" fill="#144672"/><path data-name="Tracé 27" d="M60.609 8.758L75.741 0v17.475z" fill="#12416a"/><path data-name="Tracé 28" d="M75.741 17.475l-15.132 8.758V8.758z" fill="#0d365a"/><path data-name="Tracé 29" d="M90.913 26.233l15.173-8.758V34.95z" fill="#d3ddf2"/><path data-name="Tracé 30" d="M90.913 8.758l-15.132 8.717V0z" fill="#0d365a"/><path data-name="Tracé 31" d="M106.081 34.951l-15.168-8.717-15.132 8.717 15.132 8.758z" fill="#144672"/><path data-name="Tracé 32" d="M106.081 17.475L90.913 8.758l-15.132 8.717 15.132 8.758z" fill="#12416a"/><g data-name="Groupe 21"><path data-name="Tracé 33" d="M156.744 83.84a2.632 2.632 0 112.632-2.632 2.65 2.65 0 01-2.632 2.632zm0-4.77a2.139 2.139 0 000 4.276 2.139 2.139 0 000-4.276zm.535 3.536l-.576-1.11h-.37v1.11h-.493v-2.837h1.072a.878.878 0 01.9.864.8.8 0 01-.576.781l.617 1.192zm-.452-2.385h-.493v.864h.493a.423.423 0 00.452-.411.431.431 0 00-.453-.452z" fill="#174f81"/></g></svg>