<svg data-name="Calque 3" xmlns="http://www.w3.org/2000/svg" viewBox="0 0 3103.2 2366.04"><path fill="#e0bfb1" d="M1268.97 0l615.16 861.54-35.99-505.81L1268.97 0z"/><path fill="#e8e7e6" d="M1270.56 1358.76l515.99-189.31-412 96.84-103.99 92.47z"/><path d="M1269.11.25l-524 413.29v532.93l524 413.3 530.9-418.73zm-211.34 791.74l-17-216.44 207.09-165.67 215.09 412.92-192.48 124.19z" fill="#e0bfb1"/><path d="M1269.86 147.88L859.64 471.42V888.6l410.22 323.54 415.62-327.79zm-212.09 644.11l-17-216.44 207.09-165.67 215.09 412.92-192.48 124.19z" fill="#fff"/><path fill="#ceb3aa" d="M745.09 413.54v532.93l114.55-57.87-114.55-475.06zm940.39 470.8l114.55 56.69-529.47 417.73 414.92-474.42zM1268.97 0L745.09 413.54l115.55 58.87L1268.97 0zM859.64 888.6l410.92 470.16-.7-146.63L859.64 888.6zM1268.97 0l.89 147.88 355.62 483.85L1268.97 0zm615.16 861.54L1705 409.87 1268.97 0l579.17 355.73 35.99 505.81z"/><path d="M1741.01 2092.94c4.57-12.64 7.61-22.53 10.08-35.73 2.7-14.4 4.56-31.14 3.27-45.73-3.42-38.71-14-75.28-36.86-99.81-3.67-3.92-8.73-8.42-9.39-13.75-.42-3.45.44-6.91 1.31-10.28 8.86-34.66 19.38-67.2 26.58-104a155.86 155.86 0 003.35-42.33c-.59-12.09-10.26-31.37-33.15-10-33.66 31.47-52.54 76.51-70.09 119.9-2.07 5.09-4.09 10.31-6.95 16.69-2.64 5.88-14.69 5.42-24.26 7-36.74 6.19-68.27 31.91-87 64.1-5.72 9.82-10 24.15-11.77 36.19-1.54 10.36-2.44 18.16-.49 28.45 2.77 14.58 9.72 28.8 23.89 37.49 5.53 3.4 24.94 11.08 34.29 9.68 4.24-.63 7.28-.67 13.56.54-5.81 38.63-18 77.1-20.85 116-.35 4.87-.86 6.79 2.88 9.44 7.66 5.44 11.68-7 12.64-14.87 3.49-28.51 10-52.69 15.19-80.94 1.38-7.57 4.19-17.7 6.88-29 1.54-6.46 6.7-9.29 12.67-12.19 22.41-10.85 54.56-32.85 54.63-39 2-2.47-1-7.47-4.09-8.15-5.35-1.19-7.64 2.28-10.7 4.31-17.43 11.59-30.32 20.81-43.85 26.61-3.25.57 17.39-78.94 30.23-120 1.64-5.27 3.94-14.38 9.46-14.26 13.53.3 21.46 5.18 32.4 9.82 2.07.87 14 5.5 12.79 10.4-17.77 73.28-35.44 149.62-29.29 200.53 5.4 44.67 25.72 44.45 39.69 39.1 10.48-3.8 27.95-14.65 42.95-56.21zm-120.88-198.22q-5.28 16.82-10.57 33.63c-10.44 33.21-24.15 101.59-29.29 104.53-3.79 2.17-12.53 2.38-15.78 2.15-17.85-1.23-33-4.5-39-21.34-4.49-12.54-5.18-19.66-4.92-31.54.27-12.23 1.25-18.31 12.33-37 16.33-27.53 31.71-42.7 74.68-54.76 4.62-1.28 14.21-2.75 12.57 4.33zm24.23-21.79c-.71-.21-.15-1.72.1-2.41 13.13-35.65 27.21-66 54.62-106.42 6.94-10.24 12.38-19.24 22.43-24 9.81 6.86-12.27 102.32-28.78 151.53-16.12-10.14-28.41-12.83-48.35-18.7zm44.57 263.53c-8.85.83-11.52-10-13.24-20.23-5.82-34.42 1-76.62 7.52-115.29 4.57-27.23 14.61-68.53 19.15-80.27.39-3.08 9.39 7.42 11.07 10 45.4 70.66 23 157.49-8.07 195.52-3.91 4.84-10.23 9.7-16.41 10.27zm1412.16-461.01c-13.21-1.45-29.9 7.27-41.37 14.76l-106.09 69.27-.94.62c-7.84 5.75-19.59 15.57-27 20.23a3.43 3.43 0 01-5-1.63c-13.1-32.62-24.77-68.34-41.66-92.43-5.76-8.22-10.9-19.5-18.7-20.53a7.6 7.6 0 00-8.29 6.31c-7.32 40.22-9.84 72.56-39.92 102.55-4.74 4.72-17.05 9.24-23.72 9.66-10.62.67-13.54-10.8-12.37-20.81 1.25-10.56 13.68-41.23 13.68-41.23s12.14-15.73 12.16-15.8c4.25-18.91-12.19-12.46-19.46-2.42-4.62 6.37-4.6 13.76-9.63 18.56-30.25 28.88-57.07 55.87-92.37 77.24-13.83 8.38-29.61 17.33-45.78 17.71s-34.21-2.12-40.36-21.84c-4.36-14 2.75-35.09 16.05-41.84a5.47 5.47 0 016.3 1.2c5.85 6.69 7.23 14 16.58.77.68-14-14.57-21.79-25.9-17.19-15.82 6.41-15.36 17.19-25.67 28.88-36 40.77-63.92 74.61-103.6 106.12-24.28 19.27-61.73 38.7-87.78 21.91-26.78-17.26-24.47-58.75-19.6-91.12 3.37-22.44 8.12-39.68 12.63-61.91 2.84-14 4.8-30.29-3.57-41.88-6.45-8.92-18.81-8.3-27.87-1.23-10.13 7.9-19.43 15.54-25.54 25.28-39.8 63.48-45.66 131.39-88.79 181.21a2.44 2.44 0 01-4.27-1.47c-1-16.5 3.57-37.77 9.42-52.22 8.6-21.24 19.35-31.41 8.51-34.39-13.23-.94-12.5 19.61-21.35 26.64-33.07 26.26-40.25 34.2-69.53 51.2-45.26 26.28-82.75 28.91-90.92 14.81-.71-1.22-2-2-1.41-3.34 4.21-10.09 15.16-11 23.73-21 8.37-9.77 15.19-27.91 5.32-37.39-7-6.69-20.27-2.65-27.16 2.7-26.59 20.67-28.53 47.67-15.29 66.11-55.49 27.61-98.17 62-146.12 94.54a2 2 0 01-3-1.24c-7-34.25-11.46-63.18-26.31-100.24-2.2-5.49-5.09-6.86-8.24-10.2-4.15-4.41-9.47 0-14.15.91-22.91 4.61-41.67 11.68-57.25 33.23-13.7 19-18.82 41.42-13.76 61.28 2.15 8.46 9.23 16.76 12.33 18.83 15.6 10.38 36.16 1.28 48.17-13.12 12.9-15.47 18-38 23.76-60 .24-.94 1.75.78 2.07-.13 9.42 29.49 16.15 57.05 18.67 82.8l-1.1 2.23c-50.37 42.33-148.34 120.85-176.24 205.49-14.81 44.93-20.65 90.75 6.26 118.15 25.81 26.29 64.88 16.92 94.3-5.26s50.33-50.41 64.57-84.39c26.06-62.13 32.63-130.76 31.07-197.16-.19-8.17-3.46-21.52-1.59-27.64 2.81-9.19 18.59-17 31.05-26.14 36.29-26.61 80.37-57.64 128.81-81.13 51.49 21.28 106.57-20.18 152.07-56a.35.35 0 01.54.39c-5.94 17.86-4.35 47.51 8.2 51.39 13.81 4.27 23.87-8.3 29.77-19.55 17.56-33.53 40.14-83.74 57.21-126.66 13.09-32.9 39.26-64.21 45.43-67.08 4.12-1.91 6.74.23 8.22 4.52 3.84 11.07-10.23 62.32-14.51 93.14-5.29 38.1-4.65 82.44 31.31 101.88 19.86 10.74 49.84 4.46 60 .25 20.87-8.61 39.79-21.86 55.78-37.79 25.72-25.65 53.08-50.76 76.44-79.63-.5 21.32 25.32 39 39.85 39.73 21.29 1 38.95-3.49 57.73-13.57 30-16.1 62.85-40.5 86.61-64.89-9.62 20 7.26 46 29.36 44.91s37.77-16.28 49.11-35.29c10.82-18.15 18.63-44 22.15-64.76a3.11 3.11 0 015.85-.87c14.15 28.38 32.59 62.23 38.18 91.4a5.9 5.9 0 01-2.22 5.8c-70.56 54-146.29 131.49-179.77 218.43-10.29 26.71-16.36 58.89-6.37 82.7 9.79 23.36 34.21 32.42 59.4 29.7s45.17-17.16 66.05-31.49c82.45-56.59 116.74-176.88 87.67-272.91-.66-5.85-4.5-10.6-3.37-18.13 1.33-8.83 11.63-13.89 17.6-18.63 51.07-40.56 103.91-65.13 156.27-105.93a2.28 2.28 0 00-1.33-3.94zm-1278 326c-5.9 3.89-15 3.6-19.13-3.66-2.14-3.75-5.4-9.57-5.12-13.89 1.63-25.13 10.71-45.18 37.06-60.76 2.54-1.5 9.14-4 12.08-4.29 3.83-.36 4.45-.83 7.87.95-1.63 41.37-8.26 65.49-32.75 81.63zm70.39 118.2a300.67 300.67 0 01-3.61 35.75c-2.19 15-5.2 31.83-8.44 46.59-3.06 14-17 57.15-20.84 61.2-15.68 38.32-41.89 62-75.21 80.47a46 46 0 01-17.44 5.8c-7.24.92-13.52.3-20.76-.66-6.93-.92-20.7-13.49-22.65-17.89-11.25-25.28-9.22-54.92-.08-81s22.11-54.25 38.12-76.81c12.69-17.87 27-33 41.56-49.33 26-29.23 82.89-77 84.53-76.49s3.84-.37 4 1.32c.9 8.37 1.41 58.51.83 71.03zm173.72-233.72c-1.24.33-2.22-2-2.33-3.24a5.08 5.08 0 011-3.3c4.21-7.07 8.73-15.17 17.82-17.8 4.73 3-1 12.72-6.4 16.4a31.3 31.3 0 00-7 6 9 9 0 01-3.08 1.92zm851.8 69.31c-3.21 12.06-8.24 25.07-12.59 36.77-11.95 32.1-34.54 58-60.13 80.75-12.08 10.76-27.31 20.49-41.59 28.08s-30.72 12-46.72 9.66c-11.92-1.77-19.13-9.08-24.6-19.81-6-11.81-4.57-22.82-2.3-36.62 2-12.4 4.12-25.5 9.11-37a289.54 289.54 0 0113.42-28.11c19.61-34.65 42.5-69.89 69.7-100 25.4-28.08 53.54-51.2 83.84-73.91a19.68 19.68 0 014.45-2.16c3.7-.75 5.67 5.57 5.62 9.35 0 0 4.08 17.75 5 23.84 4.8 32.96 8.57 64.85-3.2 109.14z" fill="#e0bfb1"/><path d="M475.55 1384.9c-97.58 0-176.69 76.61-176.69 171.11s79.15 171.11 176.69 171.11 176.69-76.61 176.69-171.11-79.11-171.11-176.69-171.11zm.15 275.45c-55.18 0-99.91-46.65-99.91-104.21s44.73-104.21 99.91-104.21 99.91 46.66 99.91 104.21-44.73 104.21-99.91 104.21zm1308.08-275.45c-97.58 0-176.69 76.61-176.69 171.11s79.11 171.11 176.69 171.11 176.69-76.61 176.69-171.11-79.11-171.11-176.69-171.11zm.15 275.45c-55.18 0-99.91-46.65-99.91-104.21s44.73-104.21 99.91-104.21 99.91 46.66 99.91 104.21-44.73 104.21-99.91 104.21zM715.3 1391.42h72.88v263.82H952.4v65.7H715.3v-329.52zm196.29 0h85.03l78.71 132.15 80.16-132.15h81.63l-125.84 198.71v130.81h-72.88v-129.83l-126.81-199.69zm1184.54 329.52h-71.91v-329.52h67.54l154.02 203.09v-203.09h71.42v329.52h-61.71l-159.85-209.03.49 209.03zm550.97 0v-64.24h-178.8v-69.97h155v-64.13h-155v-67.05h176.86v-64.13H2396.4v329.52h250.7zM195.72 1402.46c-4.22-1.84-29.06-9.39-36-9.84-58.58-3.73-158.77-.89-158.77-.89l-.94 329.22h73.32v-98.43s79.1 1.28 101.38-5.72c51.87-16.33 84.88-46.76 87.35-108 1.7-42.33-18.26-85.47-66.34-106.34zm-7.36 109c-1.26 42.54-51.12 46-51.12 46H73.41v-100.88s38.62-1.11 61.6 0c28.37 1.38 54.52 15.41 53.35 54.91zm1222.49 19.34h143.28l.27 143.28s-123.28 116.51-260.4 9.8c-45.74-35.6-96-166.86 5.7-257.66 0 0 110.37-98.66 243.87 4.09l-46.85 55.38s-82-77.62-160.07 6.81c0 0-56.48 78.09 24.33 153.45 0 0 63.56 34.95 123.48-4.54v-47.71h-73.54z" data-name="Calque 6" fill="#fff"/></svg>