<svg xmlns="http://www.w3.org/2000/svg" viewBox="0 0 200 200"><linearGradient id="a" gradientUnits="userSpaceOnUse" x1="32.956" y1="32.745" x2="167.044" y2="166.833"><stop offset="0" stop-color="#59c3b6"/><stop offset="1" stop-color="#30a897"/></linearGradient><path d="M143.01 13.57H56.99c-4.19 0-8.06 2.23-10.15 5.86L3.82 93.93c-2.09 3.63-2.09 8.1 0 11.72l43.01 74.5c2.09 3.63 5.96 5.86 10.15 5.86H143c4.19 0 8.06-2.23 10.15-5.86l43.01-74.5c2.09-3.63 2.09-8.1 0-11.72l-43.01-74.5a11.676 11.676 0 00-10.14-5.86z" fill="url(#a)"/><linearGradient id="b" gradientUnits="userSpaceOnUse" x1="46.957" y1="77.976" x2="90.865" y2="121.884"><stop offset="0" stop-color="#146a5c"/><stop offset="1" stop-color="#1e8272"/></linearGradient><path d="M72.14 76.62l4.81-3.85c1.12-.9 1.76-2.87 1.76-4.24 0-1.47-.65-3.23-1.76-4.24-2.61-2.4-5.86-2.1-8.49 0-4.41 3.53-8.81 7.06-13.22 10.59L34.18 91.74l-4.81 3.85c-2.36 1.89-2.32 6.6 0 8.49l13.17 10.68c7.03 5.71 14.07 11.41 21.1 17.12 1.61 1.3 3.22 2.61 4.82 3.91 1.28 1.04 2.54 1.76 4.24 1.76 1.47 0 3.23-.65 4.24-1.76 2.01-2.19 2.6-6.37 0-8.49l-13.17-10.68-20.66-16.76c2.65-2.12 5.3-4.25 7.96-6.37 7.04-5.63 14.06-11.25 21.07-16.87z" fill="url(#b)"/><linearGradient id="c" gradientUnits="userSpaceOnUse" x1="109.135" y1="77.973" x2="153.043" y2="121.881"><stop offset="0" stop-color="#146a5c"/><stop offset="1" stop-color="#1e8272"/></linearGradient><path d="M170.62 95.79l-13.17-10.68c-7.03-5.71-14.07-11.41-21.1-17.12-1.61-1.3-3.22-2.61-4.82-3.91-1.28-1.04-2.54-1.76-4.24-1.76-1.47 0-3.23.65-4.24 1.76-2.01 2.19-2.6 6.37 0 8.49l13.17 10.68 20.66 16.76c-2.65 2.12-5.3 4.25-7.96 6.37l-21.06 16.86-4.81 3.85c-1.12.9-1.76 2.87-1.76 4.24 0 1.47.65 3.23 1.76 4.24 2.61 2.4 5.86 2.1 8.49 0 4.41-3.53 8.81-7.06 13.22-10.59l21.06-16.86 4.81-3.85c2.35-1.89 2.31-6.6-.01-8.48z" fill="url(#c)"/><linearGradient id="d" gradientUnits="userSpaceOnUse" x1="81.742" y1="81.622" x2="118.566" y2="118.445"><stop offset="0" stop-color="#146a5c"/><stop offset="1" stop-color="#1e8272"/></linearGradient><path d="M112.75 54.89c-3.18-.72-6.48.96-7.38 4.19-2.49 8.9-4.97 17.8-7.46 26.7-3.94 14.09-7.87 28.18-11.81 42.27-.91 3.25-1.82 6.5-2.72 9.75-.84 3.02 1.04 6.66 4.19 7.38 3.18.72 6.48-.96 7.38-4.19 2.49-8.9 4.97-17.8 7.46-26.7 3.94-14.09 7.87-28.18 11.81-42.27.91-3.25 1.82-6.5 2.72-9.75.84-3.02-1.04-6.66-4.19-7.38z" fill="url(#d)"/></svg>